<svg width="95" height="95" viewBox="47 47 95 95" fill="none" xmlns="http://www.w3.org/2000/svg">
          <path d="M105.75 47H58.75C52.2875 47 47 52.2875 47 58.75V129.25C47 135.712 52.2875 141 58.75 141H98.0714C95.9975 140.219 93.765 138.809 92.0025 136.3C91.2564 135.284 90.7511 134.226 90.4339 133.169H58.75C56.5939 133.169 54.8314 131.406 54.8314 129.25V58.75C54.8314 56.5939 56.5939 54.8314 58.75 54.8314H105.75C107.906 54.8314 109.669 56.5939 109.669 58.75V86.3214C112.8 85.775 115.502 86.5975 117.5 87.4964V58.75C117.5 52.2875 112.212 47 105.75 47Z" fill="#FFA217"/>
          <path d="M137.998 112.183C137.587 111.789 136.964 111.196 136.87 111.032C136.811 110.72 136.999 109.745 137.111 109.163C137.457 107.354 137.892 105.104 136.547 103.177C135.149 101.167 132.793 100.88 131.065 100.674C130.519 100.609 129.685 100.509 129.567 100.486C129.362 100.269 129.003 99.4461 128.774 98.8997C128.063 97.2664 127.094 95.0222 124.803 94.2467C122.505 93.4712 120.467 94.6814 118.969 95.5627C118.499 95.8388 117.711 96.3029 117.582 96.3558C117.288 96.3029 116.501 95.8388 116.031 95.5627C114.533 94.6756 112.483 93.4653 110.197 94.2467C107.912 95.0222 106.937 97.2606 106.226 98.8938C105.991 99.4343 105.633 100.257 105.562 100.38C105.309 100.504 104.481 100.603 103.935 100.668C102.213 100.874 99.8515 101.156 98.4591 103.165C97.1138 105.098 97.5426 107.354 97.8951 109.163C98.0126 109.745 98.1948 110.72 98.1771 110.932C98.0479 111.19 97.4251 111.784 97.0139 112.177C95.739 113.393 94 115.05 94 117.5C94 119.95 95.739 121.607 97.0021 122.817C97.4134 123.21 98.0361 123.804 98.1301 123.968C98.1889 124.28 98.0009 125.255 97.8893 125.837C97.5426 127.646 97.1079 129.896 98.4532 131.823C99.8515 133.832 102.207 134.12 103.935 134.326C104.481 134.391 105.315 134.49 105.433 134.514C105.638 134.731 105.997 135.554 106.226 136.1C106.937 137.733 107.906 139.978 110.197 140.753C112.494 141.529 114.533 140.318 116.031 139.437C116.501 139.161 117.288 138.697 117.418 138.644C117.712 138.697 118.499 139.161 118.969 139.437C120.132 140.125 121.624 141 123.305 141C123.792 141 124.291 140.929 124.803 140.753C127.088 139.978 128.063 137.739 128.774 136.106C129.009 135.566 129.367 134.743 129.438 134.62C129.691 134.496 130.519 134.396 131.065 134.332C132.787 134.126 135.148 133.844 136.541 131.835C137.886 129.902 137.457 127.646 137.105 125.837C136.987 125.255 136.805 124.28 136.823 124.068C136.952 123.81 137.575 123.216 137.986 122.823C139.261 121.612 141 119.95 141 117.5C141 115.05 139.261 113.393 137.998 112.183ZM112.101 117.118C111.643 117.377 111.143 117.5 110.65 117.5C109.627 117.5 117.059 120.308 116.519 119.356C115.714 117.946 117.154 117.547 118.564 116.742L119.85 112.177C121.048 111.496 119.779 102.611 118.969 101.107C118.199 99.6789 111.114 104.916 112.536 104.146C113.963 103.371 115.749 103.905 116.519 105.333C118.74 109.445 117.159 114.245 112.753 116.742L112.101 117.118ZM127.17 125.696C126.706 127.247 125.073 128.134 123.516 127.675L122.787 127.458C121.906 127.2 121.066 127.241 120.437 127.587C119.909 127.881 119.544 128.38 119.345 129.062C118.98 130.36 117.806 131.206 116.519 131.206C116.26 131.206 115.99 131.171 115.726 131.095C114.163 130.654 121.759 135.513 122.2 133.95C122.811 131.759 122.558 132.146 124.456 131.095C126.465 129.978 131.529 121.489 133.95 122.2L125.19 122.035C126.747 122.505 127.634 124.145 127.17 125.696Z" fill="#FE7411"/>
          <path d="M108.1 114.567V120.434C108.1 120.544 108.19 120.634 108.3 120.634H114.367V126.7C114.367 126.811 114.456 126.9 114.567 126.9H120.434C120.544 126.9 120.634 126.811 120.634 126.7V120.634H126.7C126.811 120.634 126.9 120.544 126.9 120.434V114.567C126.9 114.456 126.811 114.367 126.7 114.367H120.634V108.3C120.634 108.19 120.544 108.1 120.434 108.1H114.567C114.456 108.1 114.367 108.19 114.367 108.3V114.367H108.3C108.19 114.367 108.1 114.456 108.1 114.567Z" fill="#FFF1DB"/>
          <rect x="70.5" y="98.7" width="23.5" height="4.7" rx="1" fill="#FE7411"/>
          <rect x="70.5" y="108.1" width="23.5" height="4.70001" rx="1" fill="#FE7411"/>
          <rect x="70.5" y="117.5" width="23.5" height="4.7" rx="1" fill="#FE7411"/>
          <path d="M71.0877 89.5132H75.2003V93.3592C75.2003 93.5463 75.2551 93.6995 75.3656 93.8192C75.4757 93.9397 75.6164 94 75.7879 94H78.8538C79.0129 94 79.1506 93.9397 79.2669 93.8192C79.3832 93.6995 79.4411 93.5463 79.4411 93.3592V89.5132H88.7126C88.8838 89.5132 89.0246 89.4538 89.135 89.3332C89.2454 89.2128 89.3003 89.0595 89.3003 88.8724V86.3087C89.3003 86.1227 89.2454 85.9684 89.135 85.8486C89.0249 85.7281 88.8838 85.6679 88.7126 85.6679H79.4408V83.3044H85.6831C88.1309 83.3044 90.1287 82.4908 91.6774 80.8611C93.2256 79.2332 94 77.1302 94 74.5522C94 71.976 93.2256 69.873 91.6774 68.2434C90.129 66.6154 88.1308 65.8 85.6831 65.8H75.7876C75.6161 65.8 75.4756 65.8602 75.3652 65.98C75.2551 66.1005 75.1999 66.2547 75.1999 66.4408V79.039H71.0877C70.9162 79.039 70.7757 79.1022 70.6653 79.2291C70.5552 79.3559 70.5 79.5061 70.5 79.6796V82.6636C70.5 82.8507 70.5549 83.004 70.6653 83.1244C70.7757 83.2449 70.9159 83.3044 71.0877 83.3044H75.2003V85.6678H71.0877C70.9162 85.6678 70.7757 85.7281 70.6653 85.8486C70.5552 85.9683 70.5 86.1223 70.5 86.3086V88.8724C70.5 89.0595 70.5549 89.2128 70.6653 89.3332C70.7757 89.4538 70.9161 89.5132 71.0877 89.5132ZM79.4408 70.0665H85.3159C86.6131 70.0665 87.6594 70.4803 88.4553 71.3081C89.2507 72.136 89.6486 73.2179 89.6486 74.5526C89.6486 75.8879 89.2507 76.9701 88.4553 77.797C87.6594 78.6256 86.6131 79.0393 85.3159 79.0393H79.4408V70.0665Z" fill="#FE7411"/>
          </svg>
