<svg width="79" height="99" viewBox="0 0 79 99" fill="none" xmlns="http://www.w3.org/2000/svg">
<path d="M66.7591 0.47501H12.2474C5.62725 0.47501 0.25 5.51618 0.25 11.7165V87.3524C0.25 93.5588 5.62725 98.6 12.2409 98.6H66.7526C73.3727 98.6 78.75 93.5588 78.75 87.3586V11.7165C78.75 5.51618 73.3727 0.47501 66.7591 0.47501ZM17.6966 20.9157H40.5925C42.9998 20.9157 44.9557 22.7494 44.9557 25.0063C44.9557 27.2631 42.9998 29.0968 40.5925 29.0968H17.6966C15.2827 29.0968 13.3333 27.2631 13.3333 25.0063C13.3333 22.7494 15.2827 20.9157 17.6966 20.9157ZM61.3034 78.1593H17.6901C15.2828 78.1593 13.3333 76.3256 13.3333 74.0688C13.3333 71.8119 15.2893 69.9782 17.6966 69.9782H61.3099C63.7172 69.9782 65.6667 71.8119 65.6667 74.0688C65.6667 76.3256 63.7173 78.1593 61.3034 78.1593ZM61.3034 61.8031H17.6901C15.2828 61.8031 13.3333 59.9756 13.3333 57.7126C13.3333 55.4495 15.2893 53.622 17.6966 53.622H61.3099C63.7172 53.622 65.6732 55.4557 65.6732 57.7126C65.6732 59.9694 63.7173 61.8031 61.3034 61.8031ZM61.3034 45.4469H17.6901C15.2828 45.4469 13.3268 43.6132 13.3268 41.3563C13.3268 39.0995 15.2827 37.2719 17.6966 37.2719H61.3099C63.7172 37.2719 65.6667 39.0995 65.6667 41.3625C65.6667 43.6255 63.7173 45.4469 61.3034 45.4469Z" fill="#45B3F0"/>
</svg>
