<svg width="121" height="120" viewBox="60 50 121 120" fill="none" xmlns="http://www.w3.org/2000/svg">
<path d="M180.797 78.7558C179.942 77.2437 178.324 76.2375 176.463 76.2375C174.602 76.2375 172.977 77.2437 172.123 78.7558C171.668 79.5128 171.419 80.3658 171.419 81.2742V103.962H153.776V86.3183C153.776 83.536 151.514 81.2742 148.732 81.2742C145.949 81.2742 143.688 83.536 143.688 86.3183V103.962H126.044V86.3183C126.044 83.536 123.782 81.2742 121 81.2742C118.218 81.2742 115.956 83.536 115.956 86.3183V103.962H98.3125V86.3183C98.3125 83.536 96.0508 81.2742 93.2684 81.2742C90.486 81.2742 88.2316 83.536 88.2316 86.3183V103.962H70.5809V81.2742C70.5809 80.3658 70.3316 79.5128 69.8774 78.7558C69.0226 77.2437 67.4052 76.2375 65.5441 76.2375C63.6757 76.2375 62.0657 77.2437 61.2108 78.7558C60.7493 79.5128 60.5 80.3658 60.5 81.2742V149.337C60.5 157.656 67.3055 164.462 75.625 164.462H166.375C174.694 164.462 181.5 157.656 181.5 149.337V81.2742C181.5 80.3658 181.251 79.5128 180.797 78.7558ZM171.419 114.05V129.175H153.776V114.05H171.419ZM143.688 114.05V129.175H126.044V114.05H143.688ZM126.044 139.256H143.688V154.381H126.044V139.256ZM115.956 154.381H98.3125V139.256H115.956V154.381ZM115.956 114.05V129.175H98.3125V114.05H115.956ZM88.2316 114.05V129.175H70.5809V114.05H88.2316ZM70.5809 149.337V139.256H88.2242V154.381H75.625C72.85 154.381 70.5809 152.112 70.5809 149.337ZM166.375 154.381H153.768V139.256H171.412V149.337C171.419 152.112 169.15 154.381 166.375 154.381Z" fill="#6ED9B2"/>
<path d="M166.375 53.55H75.625C67.3055 53.55 60.5 60.3555 60.5 68.675V88.8441H181.5V68.675C181.5 60.3555 174.694 53.55 166.375 53.55Z" fill="#2DB785"/>
</svg>
